# xmcd
#
# Track frame offsets:
#	150
#	10577
#	22477
#	38042
#	51072
#	64690
#	77427
#	90312
#	104267
#	118625
#	131767
#	143620
#	157047
#	168535
#	180535
#	193975
#
# Disc length: 2755 seconds
# Revision: 1
# Processed by: cddbd v1.5.2PL0 Copyright (c) Steve Scherf et al.
# Submitted via: dBpowerAMP V12.0
#
DISCID=d00ac110
DTITLE=Statler Brothers The - The Best of The Statler Brothers Readers Digest Cd 3
DYEAR=1991
DGENRE=Country
TTITLE0=Tender Years
TTITLE1=I've Been Everywhere
TTITLE2=All I Have to Offer You Is Me
TTITLE3=Amanda
TTITLE4=She Thinks I Still Care
TTITLE5=Take Good Care Of Her
TTITLE6=Take Me Home Country Roads
TTITLE7=I Believe In Music
TTITLE8=Me and Bobby McGee
TTITLE9=Delta Dawn
TTITLE10=Never Ending Song Of Love
TTITLE11=How Great Thou Art
TTITLE12=Just a Little Talk With Jesus
TTITLE13=He Went To The Cross Loving You
TTITLE14=The Lord's Prayer
TTITLE15=Jesus Take Another Look At Me
EXTD=
EXTT0=
EXTT1=
EXTT2=
EXTT3=
EXTT4=
EXTT5=
EXTT6=
EXTT7=
EXTT8=
EXTT9=
EXTT10=
EXTT11=
EXTT12=
EXTT13=
EXTT14=
EXTT15=
PLAYORDER=
